<?xml version="1.0" standalone="no"?>
<!DOCTYPE svg PUBLIC "-//W3C//DTD SVG 20010904//EN"
 "http://www.w3.org/TR/2001/REC-SVG-20010904/DTD/svg10.dtd">
<svg version="1.0" xmlns="http://www.w3.org/2000/svg"
 width="310.000000pt" height="310.000000pt" viewBox="0 0 310.000000 310.000000"
 preserveAspectRatio="xMidYMid meet">
<metadata>
Created by potrace 1.14, written by Peter Selinger 2001-2017
</metadata>
<g transform="translate(0.000000,310.000000) scale(0.100000,-0.100000)"
fill="#000000" stroke="none">
<path d="M735 3089 c-40 -11 -111 -72 -132 -113 -9 -17 -19 -65 -22 -106 l-6
-75 -75 -6 c-41 -3 -89 -13 -106 -22 -44 -23 -102 -94 -114 -138 -7 -24 -9
-440 -8 -1181 l3 -1143 27 -46 c30 -51 84 -92 143 -108 27 -7 270 -11 736 -11
614 0 698 -2 709 -15 25 -30 138 -85 215 -105 138 -35 271 -22 404 42 89 42
214 167 259 259 100 208 74 451 -69 629 l-29 35 -2 970 c-3 1075 1 1002 -69
1073 -71 72 1 67 -964 69 -488 1 -883 -3 -900 -8z m1771 -108 c67 -41 64 9 64
-1001 0 -501 -3 -910 -7 -908 -5 2 -31 15 -59 30 -28 15 -72 32 -98 39 l-46
11 0 722 c0 445 -4 735 -10 757 -5 19 -26 54 -46 77 -70 82 -6 76 -864 82
l-765 5 -3 32 c-5 53 16 109 53 142 l36 31 857 0 c821 0 858 -1 888 -19z
m-326 -297 c23 -10 48 -29 60 -49 20 -32 20 -48 20 -752 l0 -720 -72 -6 c-125
-9 -268 -78 -357 -171 l-35 -36 -426 0 c-475 0 -470 1 -470 -64 0 -19 6 -39
13 -45 9 -7 136 -11 410 -11 218 -1 397 -2 397 -3 0 -1 -9 -26 -20 -54 -11
-29 -23 -77 -26 -108 l-7 -55 -368 0 c-403 0 -399 1 -399 -59 0 -55 2 -56 403
-61 l370 -5 13 -52 c7 -29 28 -81 46 -115 18 -35 34 -66 36 -70 2 -5 -287 -8
-642 -8 -713 0 -697 -1 -736 62 -20 33 -20 47 -20 1166 0 1273 -6 1172 75
1212 39 19 61 20 867 20 736 0 832 -2 868 -16z m274 -1668 c346 -170 373 -628
51 -842 -137 -91 -337 -98 -489 -16 -106 56 -204 181 -236 302 -6 24 -12 80
-11 125 0 168 79 311 221 403 88 57 148 72 276 69 105 -2 113 -4 188 -41z"/>
<path d="M1211 2433 c-63 -22 -134 -96 -156 -162 -24 -73 -17 -169 18 -236 29
-58 102 -130 152 -151 45 -19 136 -18 183 1 50 21 118 89 150 150 23 43 27 62
27 140 0 106 -19 151 -86 208 -75 65 -190 84 -288 50z"/>
<path d="M1075 1872 c-115 -58 -220 -206 -232 -326 l-6 -56 478 0 478 0 -6 57
c-13 121 -108 257 -226 321 l-53 30 -51 -32 c-47 -29 -57 -31 -142 -31 -85 0
-95 2 -142 31 l-50 31 -48 -25z"/>
<path d="M605 1298 c-32 -17 -45 -39 -45 -78 0 -95 130 -121 166 -33 33 78
-48 152 -121 111z"/>
<path d="M917 1262 c-22 -24 -21 -65 1 -85 17 -15 68 -17 533 -17 283 0 519 4
525 8 37 24 36 91 -1 106 -9 3 -247 6 -529 6 -484 0 -514 -1 -529 -18z"/>
<path d="M620 973 c-92 -35 -73 -173 24 -173 80 0 121 90 66 145 -26 25 -65
38 -90 28z"/>
<path d="M585 615 c-38 -37 -35 -95 6 -129 17 -14 39 -26 50 -26 37 0 77 29
89 64 29 88 -81 156 -145 91z"/>
<path d="M2448 798 c-8 -7 -70 -86 -137 -175 -67 -90 -125 -163 -129 -163 -4
0 -48 41 -97 90 -83 83 -93 91 -125 88 -40 -3 -62 -35 -51 -74 3 -13 69 -86
145 -164 111 -111 142 -138 152 -128 36 39 329 437 338 459 21 56 -49 104 -96
67z"/>
</g>
</svg>
